PathFileType	4	(X/Y/Z)	/Users/itak/Documents/Research/Walk-IL/dataset/trc/00577_00009.trc
DataRate	CameraRate	NumFrames	NumMarkers	Units	OrigDataRate	OrigDataStartFrame	OrigNumFrames
100.000000	100.000000	4	53	mm	100.000000	0	559
Frame#	Time	RPSI			LPSI			L3			STRN			T10			C7			CLAV			RBAK			LBAK			LSHO			LUPA			LAEL			LAOL			LWTS			LWPS			LFRA			LIFD			LHPS			LHTS			RSHO			RUPA			RAEL			RAOL			RWTS			RWPS			RFRA			RIFD			RHTS			RHPS			RBHD			LFHD			RFHD			LBHD			LHIP			RHIP			RASI			LASI			LKNE			LTHI			LANK			LTIP			LTOE			LMT1			LMT5			LHEE			RKNE			RTHI			RANK			RTIP			RTOE			RMT1			RMT5			RHEE			
		X1	Y1	Z1	X2	Y2	Z2	X3	Y3	Z3	X4	Y4	Z4	X5	Y5	Z5	X6	Y6	Z6	X7	Y7	Z7	X8	Y8	Z8	X9	Y9	Z9	X10	Y10	Z10	X11	Y11	Z11	X12	Y12	Z12	X13	Y13	Z13	X14	Y14	Z14	X15	Y15	Z15	X16	Y16	Z16	X17	Y17	Z17	X18	Y18	Z18	X19	Y19	Z19	X20	Y20	Z20	X21	Y21	Z21	X22	Y22	Z22	X23	Y23	Z23	X24	Y24	Z24	X25	Y25	Z25	X26	Y26	Z26	X27	Y27	Z27	X28	Y28	Z28	X29	Y29	Z29	X30	Y30	Z30	X31	Y31	Z31	X32	Y32	Z32	X33	Y33	Z33	X34	Y34	Z34	X35	Y35	Z35	X36	Y36	Z36	X37	Y37	Z37	X38	Y38	Z38	X39	Y39	Z39	X40	Y40	Z40	X41	Y41	Z41	X42	Y42	Z42	X43	Y43	Z43	X44	Y44	Z44	X45	Y45	Z45	X46	Y46	Z46	X47	Y47	Z47	X48	Y48	Z48	X49	Y49	Z49	X50	Y50	Z50	X51	Y51	Z51	X52	Y52	Z52	X53	Y53	Z53	

1	0	-1233.790405273438	1011.315551757812	-270.5477905273438	-1155.926635742188	1016.161987304688	-379.06640625	-1192.319946289062	1103.048095703125	-325.9176635742188	-1002.065979003906	1293.429443359375	-200.9763641357422	-1204.017944335938	1229.443725585938	-332.0596923828125	-1176.167724609375	1503.025024414062	-295.8994445800781	-1021.463134765625	1404.370971679688	-210.8669281005859	-1277.812377929688	1374.360229492188	-263.68359375	-1154.276611328125	1452.139526367188	-391.9886474609375	-1028.484130859375	1476.349609375	-409.9400024414062	-992.7788696289062	1349.155395507812	-480.8164978027344	-953.0416870117188	1129.896240234375	-486.0727844238281	-1053.7568359375	1116.355346679688	-487.7829895019531	-885.5882568359375	895.0830078125	-387.0895385742188	-883.6992797851562	869.4266967773438	-470.8603820800781	-924.092041015625	1045.992309570312	-477.6198120117188	-842.2908935546875	752.29833984375	-399.5783081054688	-876.7542724609375	810.204345703125	-457.5008239746094	-855.9236450195312	819.09423828125	-393.3552856445312	-1210.888427734375	1462.568725585938	-133.8958129882812	-1261.282836914062	1395.981079101562	-88.16096496582031	-1281.30419921875	1105.294189453125	-55.19728851318359	-1314.810180664062	1090.245239257812	-107.7621307373047	-1141.453369140625	888.7469482421875	-20.10325241088867	-1214.654052734375	865.4498901367188	10.68584823608398	-1275.469970703125	1050.057006835938	-44.13229370117188	-1119.371215820312	720.1397705078125	-23.55997467041016	-1122.676879882812	797.8008422851562	6.470281600952148	-1196.47216796875	791.7999877929688	17.56118392944336	-1156.341064453125	1682.359008789062	-201.7209320068359	-954.906005859375	1714.754638671875	-236.7164459228516	-1044.18798828125	1712.660766601562	-122.4998626708984	-1049.070434570312	1684.94189453125	-326.5585021972656	-977.0967407226562	936.9070434570312	-415.1759948730469	-1202.331665039062	935.854248046875	-102.80078125	-1097.6240234375	966.9130249023438	-97.84274291992188	-942.7783813476562	960.3557739257812	-327.9194641113281	-1005.240966796875	490.5221557617188	-357.5820617675781	-977.6717529296875	655.8113403320312	-386.2372131347656	-1095.436279296875	31.98005867004395	-410.6289978027344	-1064.70703125	249.4795227050781	-403.8258666992188	-961.5430297851562	37.48306655883789	-238.5341339111328	-1041.854614257812	38.71800231933594	-253.5290069580078	-988.0028686523438	33.75757217407227	-349.149169921875	-1183.331787109375	31.06457710266113	-409.1091003417969	-1165.094116210938	493.16552734375	-138.3924713134766	-1173.533813476562	782.0037231445312	-85.42837524414062	-1246.484985351562	37.05763244628906	-222.341064453125	-1166.520263671875	351.0646362304688	-155.5633087158203	-1046.072998046875	38.618408203125	-118.7476959228516	-1071.031982421875	36.41421127319336	-192.6534729003906	-1151.29296875	39.00795745849609	-126.3992691040039	-1256.436279296875	26.55646514892578	-298.3717041015625	
2	0.01	-1233.943969726562	1011.424377441406	-270.62646484375	-1156.056884765625	1016.275207519531	-379.1326293945312	-1192.371948242188	1103.09765625	-325.910400390625	-1002.06689453125	1293.448974609375	-201.0592041015625	-1204.160766601562	1229.6171875	-332.0880126953125	-1176.202514648438	1503.066528320312	-295.8828125	-1021.454345703125	1404.405517578125	-210.9471893310547	-1277.850830078125	1374.428466796875	-263.6296691894531	-1154.368041992188	1452.174438476562	-391.9664611816406	-1028.581298828125	1476.412231445312	-410.0104370117188	-993.0469360351562	1349.187866210938	-480.9675598144531	-953.6924438476562	1129.908447265625	-486.4876098632812	-1054.424926757812	1116.49951171875	-488.0118408203125	-886.9153442382812	894.3779907226562	-388.0559997558594	-884.808837890625	869.2465209960938	-472.02001953125	-924.8684692382812	1045.929809570312	-478.2351989746094	-843.8353271484375	751.5576171875	-400.7856750488281	-878.015380859375	809.9830932617188	-458.7922668457031	-857.07861328125	818.6177368164062	-394.6497802734375	-1210.857666015625	1462.60205078125	-133.8719635009766	-1261.231811523438	1395.999755859375	-88.14488983154297	-1281.248046875	1105.297241210938	-55.29338455200195	-1314.799560546875	1090.290283203125	-107.8268508911133	-1141.508911132812	888.6177978515625	-20.38740158081055	-1214.740356445312	865.3479614257812	10.42789936065674	-1275.484130859375	1050.047973632812	-44.26092147827148	-1122.509521484375	719.078857421875	-22.08817481994629	-1122.850952148438	797.689697265625	6.24869966506958	-1196.666015625	791.7020874023438	17.3211555480957	-1156.29833984375	1682.46337890625	-201.6988677978516	-954.6478881835938	1714.832641601562	-236.8922119140625	-1044.148071289062	1712.685668945312	-122.5359649658203	-1049.098266601562	1684.9765625	-326.5600891113281	-977.0632934570312	937.1644287109375	-415.368408203125	-1202.559204101562	935.8741455078125	-102.8933410644531	-1097.79833984375	966.9058227539062	-97.92916107177734	-942.9454345703125	960.350830078125	-328.0072631835938	-1005.430908203125	490.5538024902344	-357.678466796875	-977.8973999023438	655.7395629882812	-386.3531494140625	-1095.431640625	31.97731018066406	-410.6330871582031	-1064.748291015625	249.5145874023438	-403.8637390136719	-961.5443725585938	37.49050903320312	-238.5346832275391	-1041.854736328125	38.71791458129883	-253.5285949707031	-988.0068969726562	33.75869369506836	-349.1477661132812	-1183.3349609375	31.04842948913574	-409.1074523925781	-1165.301513671875	493.2044067382812	-138.4730987548828	-1173.730224609375	782.0027465820312	-85.59868621826172	-1246.487060546875	37.04838562011719	-222.3372039794922	-1166.627807617188	351.0675659179688	-155.6302490234375	-1046.074340820312	38.61877822875977	-118.7441940307617	-1071.044189453125	36.40241622924805	-192.6342010498047	-1151.2900390625	39.00589752197266	-126.4008712768555	-1256.434448242188	26.54279518127441	-298.3753662109375	
3	0.02	-1234.13623046875	1011.558166503906	-270.7218017578125	-1156.223876953125	1016.413269042969	-379.21240234375	-1192.445556640625	1103.160400390625	-325.8965148925781	-1002.071533203125	1293.47216796875	-201.1660003662109	-1204.299926757812	1229.807006835938	-332.1034545898438	-1176.250732421875	1503.115356445312	-295.86279296875	-1021.445434570312	1404.445434570312	-211.05322265625	-1277.900756835938	1374.510131835938	-263.5685729980469	-1154.494995117188	1452.219970703125	-391.9322509765625	-1028.704956054688	1476.48681640625	-410.099853515625	-993.38671875	1349.232421875	-481.1524963378906	-954.4713745117188	1129.928100585938	-487.0188293457031	-1055.256958007812	1116.688598632812	-488.2966003417969	-888.4722290039062	893.567138671875	-389.3145751953125	-886.202880859375	869.0218505859375	-473.4971618652344	-925.8385009765625	1045.841674804688	-479.0207824707031	-845.7921142578125	750.6177978515625	-402.3287353515625	-879.5949096679688	809.698486328125	-460.4536437988281	-858.5452880859375	818.010498046875	-396.3020629882812	-1210.821655273438	1462.642944335938	-133.8412170410156	-1261.169189453125	1396.021606445312	-88.12529754638672	-1281.179565429688	1105.29833984375	-55.41657638549805	-1314.78955078125	1090.343017578125	-107.9073715209961	-1141.5908203125	888.4584350585938	-20.73410415649414	-1214.85400390625	865.21875	10.10491752624512	-1275.499389648438	1050.036010742188	-44.42012786865234	-1125.49462890625	718.045166015625	-20.87042236328125	-1123.064697265625	797.537109375	5.942042827606201	-1196.915771484375	791.5798950195312	17.02593231201172	-1156.251708984375	1682.589477539062	-201.6750183105469	-954.2811279296875	1714.96240234375	-237.1461486816406	-1044.102905273438	1712.717041015625	-122.5826263427734	-1049.155151367188	1685.0234375	-326.5646057128906	-977.1036987304688	937.4575805664062	-415.6452026367188	-1202.837036132812	935.8941040039062	-103.0095977783203	-1098.009155273438	966.8955078125	-98.05406188964844	-943.1553344726562	960.3480834960938	-328.1167297363281	-1005.626098632812	490.6198120117188	-357.7952880859375	-978.1676025390625	655.670166015625	-386.4989929199219	-1095.426147460938	31.96826553344727	-410.6448974609375	-1064.802124023438	249.5525054931641	-403.9178771972656	-961.549072265625	37.49894714355469	-238.5389709472656	-1041.855346679688	38.71780014038086	-253.5288238525391	-988.0123901367188	33.76060485839844	-349.1469116210938	-1183.3388671875	31.02571296691895	-409.1056213378906	-1165.563110351562	493.2471923828125	-138.5749206542969	-1173.98486328125	782.000732421875	-85.80811309814453	-1246.489868164062	37.03728866577148	-222.33251953125	-1166.76513671875	351.0722045898438	-155.7268829345703	-1046.079711914062	38.61896133422852	-118.7431488037109	-1071.058227539062	36.39126205444336	-192.6128082275391	-1151.287841796875	39.00399398803711	-126.4020462036133	-1256.43310546875	26.527587890625	-298.3784484863281	
4	0.03	-1234.358642578125	1011.710815429688	-270.8291015625	-1156.423217773438	1016.568481445312	-379.301513671875	-1192.5419921875	1103.235107421875	-325.8746032714844	-1002.08154296875	1293.4970703125	-201.2937622070312	-1204.410766601562	1229.986938476562	-332.097412109375	-1176.312255859375	1503.168212890625	-295.840576171875	-1021.437927246094	1404.487670898438	-211.1825408935547	-1277.96044921875	1374.600341796875	-263.506103515625	-1154.656005859375	1452.274658203125	-391.8871765136719	-1028.850952148438	1476.567504882812	-410.2049255371094	-993.7837524414062	1349.2880859375	-481.3612670898438	-955.328857421875	1129.954345703125	-487.647705078125	-1056.201782226562	1116.915649414062	-488.6228942871094	-890.0953369140625	892.7468872070312	-390.8599243164062	-887.8221435546875	868.7635498046875	-475.2402648925781	-926.9536743164062	1045.7294921875	-479.946533203125	-848.08447265625	749.5159301757812	-404.1562805175781	-881.4254760742188	809.3626098632812	-462.4315795898438	-860.2662353515625	817.2962646484375	-398.2567138671875	-1210.783081054688	1462.689086914062	-133.8045196533203	-1261.097900390625	1396.045043945312	-88.10316467285156	-1281.103881835938	1105.295776367188	-55.56155014038086	-1314.78173828125	1090.400634765625	-108.0012130737305	-1141.701904296875	888.2765502929688	-21.12373352050781	-1214.994018554688	865.069091796875	9.735237121582031	-1275.514770507812	1050.021606445312	-44.60113143920898	-1127.999877929688	717.1461181640625	-20.08874130249023	-1123.311279296875	797.3436279296875	5.557000160217285	-1197.2119140625	791.4390869140625	16.6898250579834	-1156.206909179688	1682.728759765625	-201.6526336669922	-953.8221435546875	1715.15185546875	-237.4728546142578	-1044.057006835938	1712.754272460938	-122.6392364501953	-1049.247436523438	1685.083984375	-326.5758972167969	-977.2625122070312	937.7434692382812	-416.0015563964844	-1203.147094726562	935.9121704101562	-103.1428909301758	-1098.244384765625	966.8820190429688	-98.21811676025391	-943.4005737304688	960.3486328125	-328.2431030273438	-1005.812133789062	490.72216796875	-357.9313659667969	-978.4663696289062	655.619873046875	-386.6662292480469	-1095.419189453125	31.95130729675293	-410.6676940917969	-1064.86962890625	249.5879516601562	-403.9889831542969	-961.5590209960938	37.50776290893555	-238.5489959716797	-1041.856567382812	38.71804428100586	-253.5300140380859	-988.0194702148438	33.76352310180664	-349.1468811035156	-1183.343383789062	30.9961109161377	-409.1038818359375	-1165.86962890625	493.2903137207031	-138.6944274902344	-1174.2919921875	781.9986572265625	-86.04380035400391	-1246.492919921875	37.02402496337891	-222.3276824951172	-1166.9287109375	351.0788269042969	-155.8556671142578	-1046.0888671875	38.61946105957031	-118.7443466186523	-1071.073608398438	36.38097381591797	-192.5902252197266	-1151.287109375	39.00267791748047	-126.4027557373047	-1256.432861328125	26.51176261901855	-298.3803100585938	
